<svg width="119" height="118" viewBox="0 0 119 118" fill="none" xmlns="http://www.w3.org/2000/svg">
<path d="M103.06 104.322C102.436 105.842 101.59 107.183 100.7 108.479C100.255 109.105 99.7649 109.73 99.3197 110.356C99.0971 110.669 98.8299 110.937 98.6073 111.205C98.3847 111.474 98.162 111.787 97.9394 112.055C97.4941 112.591 97.0489 113.083 96.6482 113.53C96.4701 113.753 96.2474 113.977 96.0693 114.156C95.8912 114.334 95.7576 114.558 95.5795 114.692C95.0007 115.362 94.6 115.765 94.6 115.765C94.6 115.765 94.2438 115.362 93.754 114.558C93.6204 114.379 93.4868 114.155 93.3533 113.887C93.2197 113.664 93.0861 113.396 92.9525 113.083C92.6854 112.502 92.3737 111.831 92.1511 111.116C92.0175 110.759 91.8839 110.356 91.7949 109.954C91.7058 109.552 91.6168 109.105 91.5277 108.702C91.3496 107.809 91.2606 106.87 91.216 105.887C91.1715 103.92 91.4832 101.819 92.3292 99.8078C93.1752 97.7964 94.4664 96.0979 95.8467 94.757C96.5591 94.0866 97.2715 93.5055 98.0284 93.0138C98.3847 92.7457 98.7854 92.5222 99.1416 92.3434C99.4978 92.1199 99.854 91.9411 100.21 91.7623C100.923 91.4047 101.59 91.1813 102.169 90.9578C102.481 90.8684 102.748 90.779 103.015 90.6896C103.282 90.6002 103.55 90.5555 103.772 90.5108C104.663 90.2873 105.197 90.2426 105.197 90.2426C105.197 90.2426 105.197 90.8237 105.153 91.7176C105.153 91.9411 105.108 92.1646 105.108 92.4328C105.108 92.7009 105.063 92.9691 105.063 93.282C105.019 93.8631 104.974 94.5335 104.885 95.2487C104.841 95.6063 104.841 95.9638 104.796 96.3214C104.752 96.679 104.707 97.0813 104.663 97.4388C104.574 98.1987 104.485 98.9585 104.351 99.7184C104.084 101.283 103.683 102.847 103.06 104.322Z" fill="url(#paint0_linear)"/>
<path d="M104.173 100.568L104.218 100.3C103.817 100.345 103.283 100.434 102.659 100.613C102.036 100.792 101.368 101.015 100.656 101.373C99.2754 102.043 97.8061 103.161 96.8265 104.77C97.3608 103.071 98.0732 101.462 98.8302 99.853C99.0083 99.5402 99.1863 99.2273 99.3644 98.9591C99.5871 98.6909 99.8097 98.4227 100.032 98.1993C100.478 97.7076 101.056 97.35 101.591 97.0371C102.125 96.7243 102.704 96.5008 103.238 96.322C103.772 96.1432 104.307 96.0538 104.752 95.9644L104.797 95.6962C103.327 95.875 101.235 96.5008 99.6761 98.1099C101.19 95.3386 103.016 92.7909 105.153 90.422C105.153 90.2879 105.153 90.1985 105.153 90.1985C105.153 90.1985 105.064 90.1985 104.975 90.2432C102.837 92.6121 100.967 95.2046 99.4535 97.9758C99.9878 95.8303 99.8542 93.5955 99.6761 91.9864L99.409 92.1205C99.4535 92.6121 99.498 93.1932 99.5425 93.8189C99.5871 94.4447 99.5425 95.0705 99.5425 95.7409C99.498 96.4114 99.409 97.0818 99.2754 97.7523C99.1864 98.1099 99.0973 98.4227 98.9637 98.7356C98.8301 99.0485 98.7411 99.4061 98.563 99.7189C97.7615 101.328 97.0936 102.982 96.5148 104.636C96.6929 102.758 96.5148 100.926 96.2031 99.2273C96.0696 98.4227 95.8915 97.6182 95.7134 96.9477C95.5353 96.2773 95.4017 95.6962 95.2681 95.2493L95.0455 95.4727C95.3572 96.5455 95.8469 98.3333 96.1141 100.345C96.3812 102.356 96.4703 104.546 95.8915 106.692C95.7134 107.362 95.5353 108.077 95.3571 108.792C95.2236 109.508 95.0455 110.178 94.9564 110.893C94.8228 108.569 94.0659 106.334 93.398 104.502C92.7301 102.669 92.0177 101.328 91.8396 101.015L91.7061 101.417C91.8842 101.73 92.1958 102.356 92.5075 103.116C92.8192 103.876 93.2645 104.859 93.6207 105.932C94.3331 108.077 94.9564 110.491 94.6447 113.083C94.5557 113.888 94.5112 114.737 94.4221 115.542C94.5112 115.631 94.5557 115.72 94.5557 115.72C94.5557 115.72 94.6002 115.676 94.6893 115.586C94.7338 114.782 94.7783 113.933 94.9119 113.128C95.2236 110.536 96.8265 108.524 98.4739 107.317C99.3199 106.692 100.121 106.289 100.878 105.977C101.591 105.664 102.17 105.53 102.481 105.44L102.615 105.172C102.303 105.217 100.967 105.53 99.409 106.423C97.8506 107.273 96.1141 108.792 95.2236 110.938C95.3126 110.223 95.4907 109.552 95.6243 108.837C95.8024 108.167 95.936 107.452 96.1586 106.781C96.782 104.591 98.2958 102.982 99.8988 101.998C101.546 101.105 103.194 100.702 104.173 100.568Z" fill="white"/>
<path d="M21.8006 26.2818C21.578 26.1924 21.3553 26.1477 21.1772 26.103" stroke="#22262F" stroke-miterlimit="10"/>
<path d="M19.8417 25.7455C5.23731 22.5273 -6.47292 36.7409 -1.08532 48.6303C4.703 61.503 19.7972 50.15 13.5636 46.6189C10.4468 44.8311 4.48037 48.3621 2.43219 53.8152C-0.150287 60.6985 -1.2189 65.9727 0.294968 73.8841C3.36723 89.8856 18.5504 99.3614 32.3534 89.8409C39.2993 85.0583 46.2008 77.147 56.6643 76.4765" stroke="#22262F" stroke-miterlimit="10" stroke-dasharray="3.02 3.02"/>
<path d="M57.377 76.4765C57.5996 76.4765 57.8222 76.4765 58.0448 76.4765" stroke="#22262F" stroke-miterlimit="10"/>
<path d="M27.0547 28.7402C27.2328 28.8296 27.4109 28.9637 27.6335 29.0531" stroke="#22262F" stroke-miterlimit="10"/>
<path d="M28.8804 29.6341C32.9767 31.3773 39.7891 32.6288 43.3066 29.6341C47.403 26.1477 47.4921 18.4599 44.2417 14.1242C43.0395 12.4705 40.5906 11.1743 39.0322 12.5152C37.6964 13.6773 38.1862 16.0015 39.4774 17.253C41.9264 19.622 46.0672 19.2197 48.9169 17.3871C58.0891 11.353 65.703 4.38031 75.8993 2.10077C88.411 -0.670446 98.7409 5.54243 94.9563 14.4818C93.2198 18.5046 91.4388 22.6167 90.949 26.9523C90.4592 31.2879 92.2847 36.428 96.4256 37.7242C99.0526 38.5735 101.902 37.6796 104.618 37.0091C107.334 36.3386 110.407 35.9811 112.633 37.6349C114.904 39.3333 115.661 42.8644 114.369 45.4121C111.253 51.4015 95.8023 53.1 94.1548 60.5644" stroke="#22262F" stroke-miterlimit="10" stroke-dasharray="3.02 3.02"/>
<path d="M93.9766 61.2795C93.9321 61.503 93.9321 61.7265 93.9321 61.95" stroke="#22262F" stroke-miterlimit="10"/>
<path d="M101.501 45.725H80.3519C79.1051 45.725 78.0811 44.697 78.0811 43.4455V13.1856C78.0811 11.9341 79.1051 10.9061 80.3519 10.9061H101.501C102.748 10.9061 103.772 11.9341 103.772 13.1856V43.4008C103.772 44.697 102.748 45.725 101.501 45.725Z" fill="white"/>
<path d="M80.3071 10.9061H101.457C102.703 10.9061 103.728 11.9341 103.728 13.1856V43.4008C103.728 44.6523 102.703 45.6803 101.457 45.6803" stroke="#22262F" stroke-width="0.25" stroke-miterlimit="10" stroke-linecap="round"/>
<path d="M97.138 20.2477H82.0884V21.4993H97.138V20.2477Z" fill="#CFDEFF"/>
<path d="M97.138 25.0303H82.0884V26.2819H97.138V25.0303Z" fill="#CFDEFF"/>
<path d="M97.138 29.7682H82.0884V31.0197H97.138V29.7682Z" fill="#CFDEFF"/>
<path d="M97.138 34.5508H82.0884V35.8023H97.138V34.5508Z" fill="#CFDEFF"/>
<path d="M97.138 39.3334H82.0884V40.5849H97.138V39.3334Z" fill="#CFDEFF"/>
<path d="M100.7 22.0803H99.186C98.9634 22.0803 98.7407 21.9015 98.7407 21.6334V20.1137C98.7407 19.8902 98.9188 19.6667 99.186 19.6667H100.7C100.922 19.6667 101.145 19.8455 101.145 20.1137V21.6334C101.101 21.8568 100.922 22.0803 100.7 22.0803Z" stroke="#22262F" stroke-width="0.25" stroke-miterlimit="10" stroke-linecap="round"/>
<path d="M100.7 26.8182H99.186C98.9634 26.8182 98.7407 26.6394 98.7407 26.3712V24.8515C98.7407 24.628 98.9188 24.4045 99.186 24.4045H100.7C100.922 24.4045 101.145 24.5833 101.145 24.8515V26.3712C101.101 26.6394 100.922 26.8182 100.7 26.8182Z" stroke="#22262F" stroke-width="0.25" stroke-miterlimit="10" stroke-linecap="round"/>
<path d="M100.7 31.6008H99.186C98.9634 31.6008 98.7407 31.422 98.7407 31.1538V29.6341C98.7407 29.4106 98.9188 29.1871 99.186 29.1871H100.7C100.922 29.1871 101.145 29.3659 101.145 29.6341V31.1538C101.101 31.3773 100.922 31.6008 100.7 31.6008Z" stroke="#22262F" stroke-width="0.25" stroke-miterlimit="10" stroke-linecap="round"/>
<path d="M100.7 36.3387H99.186C98.9634 36.3387 98.7407 36.1599 98.7407 35.8917V34.4167C98.7407 34.1932 98.9188 33.9697 99.186 33.9697H100.7C100.922 33.9697 101.145 34.1485 101.145 34.4167V35.9364C101.101 36.1599 100.922 36.3387 100.7 36.3387Z" stroke="#22262F" stroke-width="0.25" stroke-miterlimit="10" stroke-linecap="round"/>
<path d="M100.7 41.1212H99.186C98.9634 41.1212 98.7407 40.9424 98.7407 40.6742V39.1546C98.7407 38.9311 98.9188 38.7076 99.186 38.7076H100.7C100.922 38.7076 101.145 38.8864 101.145 39.1546V40.6742C101.101 40.9424 100.922 41.1212 100.7 41.1212Z" stroke="#22262F" stroke-width="0.25" stroke-miterlimit="10" stroke-linecap="round"/>
<path d="M99.1416 21.6333L99.1861 20.1136H100.7L100.655 21.6333H99.1416Z" fill="#1BBF19"/>
<path d="M99.1416 26.3712L99.1861 24.8515L100.7 24.8962L100.655 26.3712H99.1416Z" fill="#1BBF19"/>
<path d="M99.1416 31.1538L99.1861 29.6341H100.7L100.655 31.1538H99.1416Z" fill="#1BBF19"/>
<path d="M104.93 103.652H66.1483C62.8088 103.652 60.0928 100.926 60.0928 97.5735V69.1015C60.0928 65.7492 62.8088 63.0227 66.1483 63.0227H104.93C108.269 63.0227 110.985 65.7492 110.985 69.1015V97.5735C111.03 100.926 108.314 103.652 104.93 103.652Z" fill="white"/>
<path d="M111.03 69.1015V97.5735C111.03 100.926 108.314 103.652 104.974 103.652H66.1927C62.8533 103.652 60.1372 100.926 60.1372 97.5735" stroke="#22262F" stroke-width="0.25" stroke-miterlimit="10"/>
<path d="M60.0928 69.1015C60.0928 65.7492 62.8088 63.0227 66.1483 63.0227H104.93C108.269 63.0227 110.985 65.7492 110.985 69.1015H60.0928Z" fill="#1BBF19"/>
<path d="M72.9608 78.0856H68.1075C67.7068 78.0856 67.3506 77.728 67.3506 77.3258V74.3758C67.3506 73.9735 67.7068 73.6159 68.1075 73.6159H72.9608C73.3615 73.6159 73.7177 73.9735 73.7177 74.3758V77.3258C73.6732 77.7727 73.3615 78.0856 72.9608 78.0856Z" fill="#CFDEFF"/>
<path d="M80.4857 78.0856H75.6324C75.2317 78.0856 74.8755 77.728 74.8755 77.3258V74.3758C74.8755 73.9735 75.2317 73.6159 75.6324 73.6159H80.4857C80.8864 73.6159 81.2426 73.9735 81.2426 74.3758V77.3258C81.1981 77.7727 80.8864 78.0856 80.4857 78.0856Z" fill="#CFDEFF"/>
<path d="M87.9657 78.0856H83.1124C82.7117 78.0856 82.3555 77.728 82.3555 77.3258V74.3758C82.3555 73.9735 82.7117 73.6159 83.1124 73.6159H87.9657C88.3664 73.6159 88.7226 73.9735 88.7226 74.3758V77.3258C88.7226 77.7727 88.4109 78.0856 87.9657 78.0856Z" fill="#CFDEFF"/>
<path d="M95.4906 78.0856H90.6373C90.2366 78.0856 89.8804 77.728 89.8804 77.3258V74.3758C89.8804 73.9735 90.2366 73.6159 90.6373 73.6159H95.4906C95.8913 73.6159 96.2475 73.9735 96.2475 74.3758V77.3258C96.2475 77.7727 95.9358 78.0856 95.4906 78.0856Z" fill="#CFDEFF"/>
<path d="M103.016 78.0856H98.1622C97.7615 78.0856 97.4053 77.728 97.4053 77.3258V74.3758C97.4053 73.9735 97.7615 73.6159 98.1622 73.6159H103.016C103.416 73.6159 103.772 73.9735 103.772 74.3758V77.3258C103.772 77.7727 103.416 78.0856 103.016 78.0856Z" fill="#CFDEFF"/>
<path d="M72.9608 84.3432H68.1075C67.7068 84.3432 67.3506 83.9856 67.3506 83.5833V80.6333C67.3506 80.231 67.7068 79.8735 68.1075 79.8735H72.9608C73.3615 79.8735 73.7177 80.231 73.7177 80.6333V83.5833C73.6732 83.9856 73.3615 84.3432 72.9608 84.3432Z" fill="#CFDEFF"/>
<path d="M80.4857 84.3432H75.6324C75.2317 84.3432 74.8755 83.9856 74.8755 83.5833V80.6333C74.8755 80.231 75.2317 79.8735 75.6324 79.8735H80.4857C80.8864 79.8735 81.2426 80.231 81.2426 80.6333V83.5833C81.1981 83.9856 80.8864 84.3432 80.4857 84.3432Z" fill="#1BBF19"/>
<path d="M87.9657 84.3432H83.1124C82.7117 84.3432 82.3555 83.9856 82.3555 83.5833V80.6333C82.3555 80.231 82.7117 79.8735 83.1124 79.8735H87.9657C88.3664 79.8735 88.7226 80.231 88.7226 80.6333V83.5833C88.7226 83.9856 88.4109 84.3432 87.9657 84.3432Z" fill="#CFDEFF"/>
<path d="M95.4906 84.3432H90.6373C90.2366 84.3432 89.8804 83.9856 89.8804 83.5833V80.6333C89.8804 80.231 90.2366 79.8735 90.6373 79.8735H95.4906C95.8913 79.8735 96.2475 80.231 96.2475 80.6333V83.5833C96.2475 83.9856 95.9358 84.3432 95.4906 84.3432Z" fill="#CFDEFF"/>
<path d="M103.016 84.3432H98.1622C97.7615 84.3432 97.4053 83.9856 97.4053 83.5833V80.6333C97.4053 80.231 97.7615 79.8735 98.1622 79.8735H103.016C103.416 79.8735 103.772 80.231 103.772 80.6333V83.5833C103.772 83.9856 103.416 84.3432 103.016 84.3432Z" fill="#CFDEFF"/>
<path d="M72.9608 90.6008H68.1075C67.7068 90.6008 67.3506 90.2432 67.3506 89.8409V86.8909C67.3506 86.4887 67.7068 86.1311 68.1075 86.1311H72.9608C73.3615 86.1311 73.7177 86.4887 73.7177 86.8909V89.8409C73.6732 90.2432 73.3615 90.6008 72.9608 90.6008Z" fill="#CFDEFF"/>
<path d="M80.4857 90.6008H75.6324C75.2317 90.6008 74.8755 90.2432 74.8755 89.8409V86.8909C74.8755 86.4887 75.2317 86.1311 75.6324 86.1311H80.4857C80.8864 86.1311 81.2426 86.4887 81.2426 86.8909V89.8409C81.1981 90.2432 80.8864 90.6008 80.4857 90.6008Z" fill="#CFDEFF"/>
<path d="M87.9657 90.6008H83.1124C82.7117 90.6008 82.3555 90.2432 82.3555 89.8409V86.8909C82.3555 86.4887 82.7117 86.1311 83.1124 86.1311H87.9657C88.3664 86.1311 88.7226 86.4887 88.7226 86.8909V89.8409C88.7226 90.2432 88.4109 90.6008 87.9657 90.6008Z" fill="#CFDEFF"/>
<path d="M95.4906 90.6008H90.6373C90.2366 90.6008 89.8804 90.2432 89.8804 89.8409V86.8909C89.8804 86.4887 90.2366 86.1311 90.6373 86.1311H95.4906C95.8913 86.1311 96.2475 86.4887 96.2475 86.8909V89.8409C96.2475 90.2432 95.9358 90.6008 95.4906 90.6008Z" fill="#1BBF19"/>
<path d="M103.016 90.6008H98.1622C97.7615 90.6008 97.4053 90.2432 97.4053 89.8409V86.8909C97.4053 86.4887 97.7615 86.1311 98.1622 86.1311H103.016C103.416 86.1311 103.772 86.4887 103.772 86.8909V89.8409C103.772 90.2432 103.416 90.6008 103.016 90.6008Z" fill="#CFDEFF"/>
<path d="M72.9608 96.8136H68.1075C67.7068 96.8136 67.3506 96.456 67.3506 96.0538V93.1038C67.3506 92.7015 67.7068 92.3439 68.1075 92.3439H72.9608C73.3615 92.3439 73.7177 92.7015 73.7177 93.1038V96.0538C73.6732 96.5007 73.3615 96.8136 72.9608 96.8136Z" fill="#CFDEFF"/>
<path d="M80.4857 96.8136H75.6324C75.2317 96.8136 74.8755 96.456 74.8755 96.0538V93.1038C74.8755 92.7015 75.2317 92.3439 75.6324 92.3439H80.4857C80.8864 92.3439 81.2426 92.7015 81.2426 93.1038V96.0538C81.1981 96.5007 80.8864 96.8136 80.4857 96.8136Z" fill="#CFDEFF"/>
<path d="M87.9657 96.8136H83.1124C82.7117 96.8136 82.3555 96.456 82.3555 96.0538V93.1038C82.3555 92.7015 82.7117 92.3439 83.1124 92.3439H87.9657C88.3664 92.3439 88.7226 92.7015 88.7226 93.1038V96.0538C88.7226 96.5007 88.4109 96.8136 87.9657 96.8136Z" fill="#CFDEFF"/>
<path d="M95.4906 96.8136H90.6373C90.2366 96.8136 89.8804 96.456 89.8804 96.0538V93.1038C89.8804 92.7015 90.2366 92.3439 90.6373 92.3439H95.4906C95.8913 92.3439 96.2475 92.7015 96.2475 93.1038V96.0538C96.2475 96.5007 95.9358 96.8136 95.4906 96.8136Z" fill="#CFDEFF"/>
<path d="M103.016 96.8136H98.1622C97.7615 96.8136 97.4053 96.456 97.4053 96.0538V93.1038C97.4053 92.7015 97.7615 92.3439 98.1622 92.3439H103.016C103.416 92.3439 103.772 92.7015 103.772 93.1038V96.0538C103.772 96.5007 103.416 96.8136 103.016 96.8136Z" fill="#CFDEFF"/>
<path d="M98.5627 66.9113C97.7167 66.9113 97.0488 66.2409 97.0488 65.3916V60.5644C97.0488 59.7151 97.7167 59.0447 98.5627 59.0447C99.4087 59.0447 100.077 59.7151 100.077 60.5644V65.3916C100.077 66.2409 99.4087 66.9113 98.5627 66.9113Z" fill="#CFDEFF"/>
<path d="M100.077 60.5644V65.3917C100.077 66.2409 99.4087 66.9114 98.5627 66.9114C97.7167 66.9114 97.0488 66.2409 97.0488 65.3917" stroke="#22262F" stroke-width="0.25" stroke-miterlimit="10" stroke-linecap="round"/>
<path d="M86.8969 77.9068L84.2254 75.225C83.8246 74.8227 83.8246 74.2416 84.2254 73.8394L86.8969 76.5212C87.2531 76.8788 87.2531 77.5045 86.8969 77.9068Z" fill="#22262F"/>
<path d="M83.5132 77.1917L86.1847 74.5098C86.5855 74.1076 87.1643 74.1076 87.565 74.5098L84.8935 77.1917C84.5373 77.5939 83.9139 77.5939 83.5132 77.1917Z" fill="#22262F"/>
<path d="M71.8476 90.3772L69.176 87.6954C68.7753 87.2931 68.7753 86.7121 69.176 86.3098L71.8476 88.9916C72.2483 89.3939 72.2483 89.975 71.8476 90.3772Z" fill="#22262F"/>
<path d="M68.5083 89.7068L71.1798 87.025C71.5806 86.6227 72.1594 86.6227 72.5601 87.025L69.8886 89.7068C69.4879 90.0644 68.8645 90.0644 68.5083 89.7068Z" fill="#22262F"/>
<path d="M101.902 96.6348L99.2307 93.953C98.83 93.5507 98.83 92.9697 99.2307 92.5674L101.902 95.2492C102.303 95.6068 102.303 96.2325 101.902 96.6348Z" fill="#22262F"/>
<path d="M98.563 95.9197L101.235 93.2379C101.635 92.8356 102.214 92.8356 102.615 93.2379L99.9433 95.9197C99.5871 96.322 98.9637 96.322 98.563 95.9197Z" fill="#22262F"/>
<path d="M63.4323 73.7947C79.1458 73.7947 91.8841 61.0074 91.8841 45.2334C91.8841 29.4594 79.1458 16.672 63.4323 16.672C47.7188 16.672 34.9805 29.4594 34.9805 45.2334C34.9805 61.0074 47.7188 73.7947 63.4323 73.7947Z" fill="url(#paint1_linear)"/>
<path d="M79.3203 61.205C88.1013 52.3902 88.1013 38.0986 79.3203 29.2837C70.5393 20.4689 56.3025 20.4689 47.5215 29.2837C38.7405 38.0986 38.7405 52.3902 47.5215 61.205C56.3025 70.0198 70.5393 70.0198 79.3203 61.205Z" fill="white"/>
<path d="M64.2337 27.7569H62.6308C62.4082 27.7569 62.1855 27.5781 62.1855 27.3099V24.5834C62.1855 24.3599 62.3636 24.1364 62.6308 24.1364H64.2337C64.4564 24.1364 64.679 24.3152 64.679 24.5834V27.3099C64.679 27.5781 64.5009 27.7569 64.2337 27.7569Z" fill="#CFDEFF"/>
<path d="M55.4173 29.6788L53.9925 30.4834C53.7699 30.6175 53.5027 30.5281 53.4137 30.3046L52.0779 27.9803C51.9443 27.7569 52.0334 27.4887 52.256 27.3993L53.6808 26.5947C53.9034 26.4606 54.1706 26.55 54.2596 26.7735L55.5954 29.0978C55.729 29.3213 55.6399 29.5894 55.4173 29.6788Z" fill="#CFDEFF"/>
<path d="M48.7385 35.8023L47.937 37.2326C47.8035 37.4561 47.5363 37.5008 47.3582 37.4114L45.0429 36.0705C44.8203 35.9364 44.7757 35.6682 44.8648 35.4894L45.6662 34.0591C45.7998 33.8356 46.067 33.7909 46.2451 33.8803L48.5604 35.2212C48.783 35.3106 48.8721 35.5788 48.7385 35.8023Z" fill="#CFDEFF"/>
<path d="M46.0226 44.4288V46.0379C46.0226 46.2614 45.8445 46.4849 45.5773 46.4849H42.8613C42.6386 46.4849 42.416 46.3061 42.416 46.0379V44.4288C42.416 44.2054 42.5941 43.9819 42.8613 43.9819H45.5773C45.8 43.9819 46.0226 44.2054 46.0226 44.4288Z" fill="#CFDEFF"/>
<path d="M47.9373 53.2789L48.7387 54.7092C48.8723 54.9326 48.7833 55.2008 48.5606 55.2902L46.2453 56.6311C46.0227 56.7652 45.7555 56.6758 45.6665 56.4523L44.865 55.022C44.7314 54.7986 44.8205 54.5304 45.0431 54.441L47.3584 53.1001C47.5365 53.0107 47.8037 53.1001 47.9373 53.2789Z" fill="#CFDEFF"/>
<path d="M54.0372 59.9834L55.462 60.788C55.6846 60.922 55.7292 61.1902 55.6401 61.369L54.3043 63.6932C54.1708 63.9167 53.9036 63.9614 53.7255 63.872L52.3007 63.0675C52.0781 62.9334 52.0335 62.6652 52.1226 62.4864L53.4584 60.1622C53.5474 59.9387 53.8146 59.894 54.0372 59.9834Z" fill="#CFDEFF"/>
<path d="M62.6308 62.7546H64.2337C64.4564 62.7546 64.679 62.9334 64.679 63.2015V65.9281C64.679 66.1515 64.5009 66.375 64.2337 66.375H62.6308C62.4082 66.375 62.1855 66.1962 62.1855 65.9281V63.2015C62.1855 62.9334 62.4082 62.7546 62.6308 62.7546Z" fill="#CFDEFF"/>
<path d="M71.4467 60.788L72.8715 59.9834C73.0941 59.8493 73.3613 59.9387 73.4503 60.1622L74.7861 62.4864C74.9197 62.7099 74.8306 62.9781 74.608 63.0675L73.1832 63.872C72.9606 64.0061 72.6934 63.9167 72.6044 63.6933L71.2686 61.369C71.1795 61.1902 71.2241 60.922 71.4467 60.788Z" fill="#CFDEFF"/>
<path d="M78.1257 54.7091L78.9272 53.2788C79.0608 53.0554 79.3279 53.0107 79.506 53.1001L81.8214 54.441C82.044 54.575 82.0885 54.8432 81.9995 55.022L81.198 56.4523C81.0644 56.6758 80.7973 56.7205 80.6192 56.6311L78.3039 55.2902C78.0812 55.1561 77.9922 54.9326 78.1257 54.7091Z" fill="#CFDEFF"/>
<path d="M80.8862 46.0826V44.4735C80.8862 44.25 81.0643 44.0266 81.3315 44.0266H84.0476C84.2702 44.0266 84.4928 44.2053 84.4928 44.4735V46.0826C84.4928 46.3061 84.3147 46.5296 84.0476 46.5296H81.3315C81.0643 46.4849 80.8862 46.3061 80.8862 46.0826Z" fill="#CFDEFF"/>
<path d="M78.9272 37.2326L78.1257 35.8023C77.9922 35.5788 78.0812 35.3106 78.3039 35.2212L80.6192 33.8803C80.8418 33.7462 81.109 33.8356 81.198 34.0591L81.9995 35.4894C82.133 35.7129 82.044 35.9811 81.8214 36.0705L79.506 37.4114C79.3279 37.5008 79.0608 37.4114 78.9272 37.2326Z" fill="#CFDEFF"/>
<path d="M72.8715 30.5281L71.4467 29.7235C71.2241 29.5894 71.1795 29.3212 71.2686 29.1424L72.6044 26.8182C72.7379 26.5947 73.0051 26.55 73.1832 26.6394L74.608 27.444C74.8306 27.5781 74.8752 27.8462 74.7861 28.025L73.4503 30.3493C73.3168 30.5728 73.0496 30.6175 72.8715 30.5281Z" fill="#CFDEFF"/>
<path d="M63.4321 22.6614C75.8548 22.6614 85.9175 32.7629 85.9175 45.2333C85.9175 57.7038 75.8548 67.8053 63.4321 67.8053" stroke="#22262F" stroke-width="0.25" stroke-miterlimit="10"/>
<path d="M63.4321 16.672C79.1496 16.672 91.884 29.4553 91.884 45.2334C91.884 61.0114 79.1496 73.7947 63.4321 73.7947" stroke="#22262F" stroke-width="0.25" stroke-miterlimit="10"/>
<path d="M63.6992 27.2652C64.4562 30.7962 66.2372 42.3281 63.7438 48.2281C63.6102 48.4962 63.254 48.4962 63.1204 48.2281C60.5825 42.3728 62.408 30.8409 63.1649 27.2652C63.2095 26.9523 63.6547 26.9523 63.6992 27.2652Z" fill="#22262F"/>
<path d="M49.5849 45.0545C52.301 44.4735 62.0076 43.0879 66.5492 45.0098C66.7718 45.0992 66.7718 45.4121 66.5492 45.5015C62.0076 47.4682 52.301 46.0379 49.5849 45.4568C49.3623 45.4121 49.3623 45.0992 49.5849 45.0545Z" fill="#22262F"/>
<path d="M22.8252 44.8311L24.6953 39.6462H30.1274L28.8807 44.0265L22.8252 44.8311Z" fill="#F4B7BC" stroke="#F4B7BC" stroke-width="0.25" stroke-miterlimit="10" stroke-linecap="round" stroke-linejoin="round"/>
<path d="M29.0585 41.881L28.8804 44.0265L29.4592 41.9704L29.0585 41.881Z" fill="#22262F" stroke="#22262F" stroke-width="0.25" stroke-miterlimit="10"/>
<path d="M30.6527 37.7003C31.1839 35.442 29.7909 33.1791 27.5413 32.6458C25.2917 32.1126 23.0374 33.511 22.5062 35.7692C21.975 38.0275 23.3681 40.2904 25.6177 40.8237C27.8673 41.3569 30.1215 39.9585 30.6527 37.7003Z" fill="#F4B7BC" stroke="#F4B7BC" stroke-width="0.25" stroke-miterlimit="10" stroke-linecap="round" stroke-linejoin="round"/>
<path d="M30.3055 34.8636C31.2851 36.8303 31.4187 40.0038 30.4391 41.3894C29.4595 42.775 28.1238 41.3 27.8121 40.5402C27.8121 40.5402 26.9216 39.7356 27.0552 39.0652C27.2333 38.3053 28.2128 38.3947 28.3464 39.244" fill="#F4B7BC"/>
<path d="M30.3055 34.8636C31.2851 36.8303 31.4187 40.0038 30.4391 41.3894C29.4595 42.775 28.1238 41.3 27.8121 40.5402C27.8121 40.5402 26.9216 39.7356 27.0552 39.0652C27.2333 38.3053 28.2128 38.3947 28.3464 39.244" stroke="#F4B7BC" stroke-width="0.25" stroke-miterlimit="10" stroke-linecap="round" stroke-linejoin="round"/>
<path d="M27.5 40.1826C27.9007 40.5849 28.3905 40.2273 28.3015 39.6909" stroke="#22262F" stroke-width="0.25" stroke-miterlimit="10" stroke-linecap="round" stroke-linejoin="round"/>
<path d="M27.945 38.6182C28.3903 38.8417 28.5684 39.5121 29.1027 39.4227C29.5034 39.3333 29.637 38.8417 29.5479 38.5288C29.4589 38.1712 29.3698 37.6795 29.5479 37.4561C29.726 37.2326 30.3494 36.7856 29.9486 36.2045C29.5479 35.6235 30.3939 35.0871 30.483 34.372C30.7056 33.1205 29.1472 31.0197 26.2085 31.6008C22.6019 32.3159 22.78 34.7742 22.78 34.7742C22.78 34.7742 22.0676 35.0871 21.7114 36.2045C21.3997 37.1879 21.7559 38.3053 22.9581 39.4674C24.1603 40.6295 23.8932 40.9871 23.626 41.2553C23.4034 41.5682 23.537 41.8811 24.4275 41.9705C25.318 42.0152 27.3216 41.9705 27.4552 40.2273C27.4552 40.2273 27.1435 39.825 27.01 39.378C26.9209 38.8417 27.4552 38.35 27.945 38.6182Z" fill="url(#paint2_linear)" stroke="#22262F" stroke-width="0.25" stroke-miterlimit="10" stroke-linecap="round" stroke-linejoin="round"/>
<path d="M30.7504 35.9363C31.3292 37.8583 31.2847 40.272 30.4832 41.3894C29.9934 42.0598 29.4146 42.0598 28.9248 41.7916" stroke="#22262F" stroke-width="0.25" stroke-miterlimit="10" stroke-linecap="round" stroke-linejoin="round"/>
<path d="M22.7803 43.5796C22.8693 43.5349 23.8489 43.0432 26.2533 43.0432C27.1883 43.0432 28.2569 43.1326 29.3255 43.2667H29.3701L29.7263 44.0712L22.0679 45.0099L22.7803 43.5796Z" fill="#1BBF19"/>
<path d="M35.3812 41.3447C35.025 41.0765 34.5798 40.8977 34.09 40.8977H33.4666L32.1309 40.4955C31.9528 40.4508 31.7301 40.4955 31.552 40.6295C31.1958 40.9424 30.4834 41.5682 30.1272 41.9258C30.0382 42.0152 30.1272 42.1492 30.2163 42.1939C30.5279 42.2833 30.8396 42.1939 31.1068 42.0152L31.1958 41.9705L31.7747 42.6409C32.1309 43.0432 32.398 43.5349 32.5761 44.0712C33.2885 46.2167 34.7133 45.9485 35.4703 46.5295L37.2068 42.8197C36.4498 42.1492 35.8265 41.6576 35.3812 41.3447ZM32.0418 41.7023L32.5761 41.8811L32.6652 42.2386L32.0418 41.7023Z" fill="#F4B7BC" stroke="#F4B7BC" stroke-width="0.25" stroke-miterlimit="10" stroke-linecap="round" stroke-linejoin="round"/>
<path d="M35.5148 44.4735C35.3367 44.697 34.2236 44.5182 33.0659 44.8311V45.0099C33.8229 46.172 34.8915 46.0826 35.5148 46.5296L37.2513 42.8197C36.3608 43.3561 35.6929 44.2053 35.5148 44.4735Z" fill="#22262F" stroke="#22262F" stroke-width="0.25" stroke-miterlimit="10" stroke-linecap="round" stroke-linejoin="round"/>
<path d="M20.9549 72.0068C16.3688 69.8167 12.0943 62.6204 11.7826 60.3856C11.5155 58.3295 15.7009 46.6636 21.0439 45.278H21.133L20.0644 57.3462C17.9271 59.5363 17.6155 60.8326 17.6155 60.8773C17.4819 62.7545 22.4242 67.8947 22.4687 67.9394L22.5133 67.9841L21.0439 72.1409L20.9549 72.0068Z" fill="#1BBF19"/>
<path d="M21.0885 66.822C21.133 67.6265 21.044 69.6826 20.5542 71.7387C20.6878 71.8281 20.8659 71.9174 20.9995 71.9621L22.4688 67.8947C22.4688 67.8947 21.8454 67.269 21.044 66.3303C21.044 66.5538 21.044 66.7326 21.0885 66.822Z" fill="#22262F" stroke="#22262F" stroke-width="0.25" stroke-miterlimit="10" stroke-linecap="round" stroke-linejoin="round"/>
<path d="M19.9752 57.2568L20.8212 49.8818C17.838 50.4629 17.0811 52.7871 17.6599 54.7091C18.2833 56.8099 18.4168 57.0334 18.9066 58.4637C19.2183 58.1061 19.5745 57.7038 19.9752 57.2568Z" fill="#22262F" stroke="#22262F" stroke-width="0.25" stroke-miterlimit="10" stroke-linecap="round" stroke-linejoin="round"/>
<path d="M21.0883 78.6667C20.1087 76.2977 20.4204 74.4652 20.8211 72.3644C21.3109 69.8614 21.8452 67.0455 20.4204 62.4417C18.9065 57.6144 17.9715 53.5917 17.4817 51.1333C16.9474 48.5409 18.5058 45.9932 21.0438 45.2333C23.0029 44.6523 26.0306 43.9818 29.1919 43.9818C30.8839 43.9818 32.4423 44.1606 33.8671 44.5629C35.6927 45.0545 37.0729 46.5295 37.4737 48.4068C37.5627 48.8985 37.6963 49.4348 37.8299 50.0159C38.943 54.9326 41.0802 64.0955 40.2788 78.622V78.6667H21.0883Z" fill="#1BBF19"/>
<path d="M21.1329 78.6219C18.9957 73.4818 23.1366 70.9788 20.4651 62.4416C18.9957 57.7485 18.0607 53.8598 17.5264 51.1333" stroke="#22262F" stroke-width="0.25" stroke-miterlimit="10" stroke-linecap="round" stroke-linejoin="round"/>
<path d="M35.6484 55.603C35.6484 55.603 38.6762 67.1795 36.4499 78.622" stroke="#22262F" stroke-width="0.25" stroke-miterlimit="10" stroke-linecap="round"/>
<path d="M33.1992 54.3962C35.4255 56.7652 39.7445 61.3243 39.7445 61.3243C39.7445 61.3243 39.4328 57.3462 38.4978 53.8152L33.1992 54.3962Z" fill="#22262F" stroke="#22262F" stroke-width="0.25" stroke-miterlimit="10" stroke-linecap="round"/>
<path d="M26.3423 78.622C26.3423 78.622 25.051 75.7614 26.1196 72.4538C27.9452 66.6432 18.8175 46.4849 23.5817 44.6523" stroke="#22262F" stroke-width="0.25" stroke-miterlimit="10" stroke-linecap="round"/>
<path d="M35.4704 46.5296C35.3814 44.0265 37.2069 42.775 37.2515 42.775H37.296L37.3405 42.8197C37.385 42.8197 39.7004 44.5629 41.8376 46.8871C43.7967 48.9879 46.023 52.072 45.3551 54.4856L45.3106 54.575L35.4704 46.5296Z" fill="#1BBF19"/>
<path d="M35.515 46.5295L38.6318 49.0773L41.704 48.9432C39.834 47.0659 37.0734 45.0992 35.9602 44.3841C35.6931 44.9205 35.4705 45.6356 35.515 46.5295Z" fill="#22262F" stroke="#22262F" stroke-width="0.25" stroke-miterlimit="10"/>
<path d="M40.6795 56.5417C38.008 56.5417 34.9357 55.6924 33.1547 54.4409C30.9284 52.8765 30.1269 48.7644 30.9284 46.2614C31.3291 45.0546 32.0415 44.3394 32.9766 44.3394C33.0656 44.3394 33.1101 44.3394 33.1992 44.3394C36.3605 44.697 42.3715 48.6303 44.5087 51.7591C45.2211 52.7871 45.4437 53.6364 45.2656 54.3515C44.9094 55.7818 43.2174 56.5417 40.6795 56.5417Z" fill="#1BBF19"/>
<path d="M30.8843 50.15C31.196 51.8932 31.9974 53.547 33.1996 54.3962C36.4945 56.7205 44.331 57.6144 45.2215 54.3962" stroke="#22262F" stroke-width="0.25" stroke-miterlimit="10" stroke-linecap="round"/>
<path d="M43.0394 50.15C40.3233 47.4235 35.7372 44.7417 33.1992 44.4735" stroke="#22262F" stroke-width="0.25" stroke-miterlimit="10" stroke-linecap="round"/>
<path d="M45.2214 54.3962C46.5127 49.7031 37.2514 42.775 37.2514 42.775C37.2514 42.775 36.0937 43.5796 35.6484 45.144" stroke="#22262F" stroke-width="0.25" stroke-miterlimit="10" stroke-linecap="round"/>
<path d="M21.0439 45.278C23.7155 44.5182 27.3666 43.803 30.8841 44.1159" stroke="#22262F" stroke-width="0.25" stroke-miterlimit="10" stroke-linecap="round" stroke-linejoin="round"/>
<path d="M21.5339 114.737C20.9105 114.737 20.3762 114.602 20.02 114.379V114.334C18.7733 103.071 19.9755 98.5562 20.6879 95.8744C20.866 95.2934 20.9996 94.757 21.0441 94.31C21.5339 91.4494 21.8011 80.2305 21.8011 80.0964C21.5339 79.6494 21.2667 79.1578 21.0886 78.7108L21.0441 78.6214H29.7266V82.8229L24.8733 114.111H24.8288C23.5376 114.513 22.4244 114.737 21.5339 114.737Z" fill="#1BBF19"/>
<path d="M27.6783 79.7394L27.4111 97.35L29.6819 82.7788V79.7394H27.6783Z" fill="#22262F" stroke="#22262F" stroke-width="0.25" stroke-miterlimit="10" stroke-linecap="round"/>
<path d="M31.5074 115.363C30.3943 115.363 29.5038 115.005 29.014 114.38C29.0585 109.373 29.4147 100.3 31.3739 95.5621C32.8877 91.897 29.2366 81.6167 29.0585 81.0803C28.8359 80.9909 27.4111 80.3651 26.2979 78.6667L26.2534 78.5773H38.8987V78.622C38.3198 89.3939 36.806 101.417 34.4461 114.38C33.7337 115.005 32.6206 115.363 31.5074 115.363Z" fill="#1BBF19"/>
<path d="M38.8099 78.6219H21.1333C21.2224 78.8454 21.3114 79.0689 21.445 79.2477H38.7654C38.7654 79.0689 38.8099 78.8454 38.8099 78.6219Z" fill="#22262F" stroke="#22262F" stroke-width="0.25" stroke-miterlimit="10"/>
<path d="M37.9637 116.659C37.7411 116.346 37.4739 116.078 37.1622 115.899L34.3571 114.38C33.0214 115.497 30.1272 115.765 29.0586 114.335C29.0586 115.229 29.0586 115.989 29.0586 116.57C29.0586 117.195 29.5929 117.687 30.2163 117.687H38.0528C38.3199 117.687 38.498 117.374 38.3199 117.151L37.9637 116.659Z" fill="url(#paint3_linear)" stroke="#22262F" stroke-width="0.25" stroke-miterlimit="10" stroke-linecap="round" stroke-linejoin="round"/>
<path d="M20.0645 114.335C20.1535 115.229 20.2871 116.212 20.4207 117.195C20.4652 117.464 20.6878 117.687 20.955 117.687H25.5856C25.9418 117.687 26.209 117.33 26.1199 116.972C25.7637 115.81 24.7842 113.977 24.7842 113.977C23.2703 114.514 21.1776 115.05 20.0645 114.335Z" fill="url(#paint4_linear)" stroke="#22262F" stroke-width="0.25" stroke-miterlimit="10" stroke-linecap="round" stroke-linejoin="round"/>
<path d="M27.0996 79.7394C27.9901 80.7227 29.0587 81.0356 29.0587 81.0356C29.0587 81.0356 32.977 91.7629 31.4186 95.6068" stroke="#22262F" stroke-width="0.25" stroke-miterlimit="10" stroke-linecap="round"/>
<path d="M36.4498 78.6219C36.1826 90.6007 35.114 98.5568 32.3979 115.229" stroke="#22262F" stroke-width="0.25" stroke-miterlimit="10"/>
<path d="M36.272 83.4492L37.2515 78.6219" stroke="#22262F" stroke-width="0.25" stroke-miterlimit="10"/>
<path d="M28.5242 84.6561L24.3833 114.156" stroke="#22262F" stroke-width="0.25" stroke-miterlimit="10"/>
<defs>
<linearGradient id="paint0_linear" x1="98.2103" y1="74.1381" x2="98.2103" y2="114.941" gradientUnits="userSpaceOnUse">
<stop stop-color="#C6D9FA"/>
<stop offset="1" stop-color="#FEFEFE"/>
</linearGradient>
<linearGradient id="paint1_linear" x1="63.4403" y1="73.8333" x2="63.4403" y2="16.6693" gradientUnits="userSpaceOnUse">
<stop stop-color="#FEFEFE"/>
<stop offset="1" stop-color="#C6D9FA"/>
</linearGradient>
<linearGradient id="paint2_linear" x1="30.9687" y1="23.0889" x2="23.585" y2="43.0615" gradientUnits="userSpaceOnUse">
<stop stop-color="#1D325F"/>
<stop offset="1" stop-color="#00030E"/>
</linearGradient>
<linearGradient id="paint3_linear" x1="56.3269" y1="70.4885" x2="32.1085" y2="118.74" gradientUnits="userSpaceOnUse">
<stop stop-color="#1D325F"/>
<stop offset="1" stop-color="#00030E"/>
</linearGradient>
<linearGradient id="paint4_linear" x1="47.8034" y1="66.2102" x2="23.585" y2="114.461" gradientUnits="userSpaceOnUse">
<stop stop-color="#1D325F"/>
<stop offset="1" stop-color="#00030E"/>
</linearGradient>
</defs>
</svg>
