<svg width="36" height="36" viewBox="0 0 36 36" fill="none" xmlns="http://www.w3.org/2000/svg">
<rect width="36" height="36" rx="8" fill="white"/>
<path d="M21.853 10.5033L19.8542 10.5C17.6087 10.5 16.1575 12.0294 16.1575 14.3966V16.1932H14.1478C13.9741 16.1932 13.8335 16.3378 13.8335 16.5162V19.1193C13.8335 19.2977 13.9743 19.4421 14.1478 19.4421H16.1575V26.0105C16.1575 26.1889 16.2981 26.3333 16.4718 26.3333H19.0938C19.2675 26.3333 19.4081 26.1887 19.4081 26.0105V19.4421H21.7579C21.9316 19.4421 22.0722 19.2977 22.0722 19.1193L22.0732 16.5162C22.0732 16.4306 22.04 16.3485 21.9811 16.2879C21.9223 16.2273 21.8421 16.1932 21.7587 16.1932H19.4081V14.6702C19.4081 13.9382 19.5779 13.5666 20.5062 13.5666L21.8527 13.5661C22.0262 13.5661 22.1668 13.4215 22.1668 13.2432V10.8261C22.1668 10.6481 22.0264 10.5036 21.853 10.5033Z" fill="#22262F"/>
</svg>
