<svg width="333" height="373" viewBox="0 0 333 373" fill="none" xmlns="http://www.w3.org/2000/svg">
<path fill-rule="evenodd" clip-rule="evenodd" d="M309 0C309 0 288.52 59.0292 288.52 91.5556C288.52 102.866 297.689 112.035 309 112.035C320.311 112.035 329.48 102.866 329.48 91.5556C329.48 63.848 309 0 309 0ZM309 483.076C405.472 483.076 483.678 404.87 483.678 308.398C483.678 211.925 405.472 133.719 309 133.719C212.528 133.719 134.322 211.925 134.322 308.398C134.322 343.54 144.699 376.258 162.556 403.655C169.84 400.881 178.504 396.998 182.509 393.328C183.814 392.131 185.297 390.561 186.981 388.777C194.621 380.685 206.411 368.196 224.672 366.222C242.502 364.295 271.454 372.246 283.702 376.462L337.31 390.918C340.723 391.922 347.068 395.255 345.14 400.556C342.731 407.181 333.696 407.181 327.672 407.181C325.214 407.181 321.352 406.78 316.782 406.305L316.774 406.304H316.773L316.773 406.304L316.772 406.304C310.144 405.615 302.028 404.772 294.544 404.772C284.424 404.772 268.242 408.787 261.415 410.795C263.824 411.598 269.848 412.964 274.667 412C276.098 411.714 277.734 411.325 279.492 410.908L279.495 410.907C285.137 409.568 292.046 407.927 297.555 408.386C299.468 408.545 302.14 408.789 305.125 409.061L305.135 409.062L305.138 409.063C313.43 409.819 324.131 410.795 327.672 410.795C327.891 410.795 328.127 410.797 328.381 410.798L328.439 410.798C333.814 410.828 346.462 410.899 348.754 401.158C349.357 398.749 348.995 393.086 342.731 389.713C349.357 386.3 365.499 376.944 377.064 366.825C391.52 354.175 402.965 351.164 415.012 357.187C424.649 362.006 416.618 372.045 411.398 376.462C403.166 386.501 384.172 408.025 374.052 413.807C363.933 419.59 333.696 437.098 319.842 445.129C314.421 447.94 298.881 452.116 280.088 446.333C256.596 439.105 235.514 433.082 226.479 433.684C217.444 434.287 204.193 437.901 196.965 442.117L196.734 442.227C227.093 467.722 266.253 483.076 309 483.076ZM329.48 526.444C329.48 558.971 309 618 309 618C309 618 288.52 554.152 288.52 526.444C288.52 515.134 297.689 505.965 309 505.965C320.311 505.965 329.48 515.134 329.48 526.444ZM526.444 288.52C558.971 288.52 618 309 618 309C618 309 554.152 329.48 526.444 329.48C515.134 329.48 505.965 320.311 505.965 309C505.965 297.689 515.134 288.52 526.444 288.52ZM0 309C0 309 59.0292 329.48 91.5556 329.48C102.866 329.48 112.035 320.311 112.035 309C112.035 297.689 102.866 288.52 91.5556 288.52C63.848 288.52 0 309 0 309ZM169.725 477.238C146.725 500.237 90.504 527.496 90.504 527.496C90.504 527.496 121.17 467.867 140.762 448.275C148.76 440.277 161.727 440.277 169.725 448.275C177.723 456.273 177.723 469.24 169.725 477.238ZM527.496 90.504C527.496 90.504 471.275 117.763 448.275 140.762C440.277 148.76 440.277 161.727 448.275 169.725C456.273 177.723 469.24 177.723 477.238 169.725C496.83 150.133 527.496 90.504 527.496 90.504ZM477.238 448.275C500.237 471.275 527.496 527.496 527.496 527.496C527.496 527.496 467.867 496.83 448.275 477.238C440.277 469.24 440.277 456.273 448.275 448.275C456.273 440.277 469.24 440.277 477.238 448.275ZM90.504 90.504C90.504 90.504 117.763 146.725 140.762 169.725C148.76 177.723 161.727 177.723 169.725 169.725C177.723 161.727 177.723 148.76 169.725 140.762C150.133 121.17 90.504 90.504 90.504 90.504ZM245.459 517.96C233.12 548.055 191.778 594.902 191.778 594.902C191.778 594.902 197.051 528.058 207.562 502.421C211.853 491.956 223.815 486.951 234.28 491.242C244.745 495.533 249.75 507.495 245.459 517.96ZM426.221 23.0977C426.221 23.0977 384.88 69.9454 372.54 100.04C368.25 110.505 373.255 122.467 383.72 126.758C394.185 131.049 406.147 126.044 410.438 115.579C420.949 89.9421 426.221 23.0977 426.221 23.0977ZM517.96 372.54C548.055 384.88 594.902 426.221 594.902 426.221C594.902 426.221 528.058 420.949 502.421 410.438C491.956 406.147 486.951 394.185 491.242 383.72C495.533 373.255 507.494 368.25 517.96 372.54ZM23.0976 191.779C23.0976 191.779 69.9454 233.12 100.04 245.46C110.505 249.75 122.467 244.745 126.758 234.28C131.049 223.815 126.044 211.853 115.578 207.562C89.942 197.051 23.0976 191.779 23.0976 191.779ZM116.313 411.827C86.3079 424.382 23.9484 428.275 23.9484 428.275C23.9484 428.275 74.9427 384.737 100.503 374.042C110.937 369.676 122.935 374.595 127.3 385.029C131.666 395.463 126.747 407.461 116.313 411.827ZM594.052 189.725C594.052 189.725 531.692 193.618 501.687 206.173C491.253 210.539 486.334 222.537 490.699 232.971C495.065 243.405 507.063 248.324 517.497 243.958C543.057 233.263 594.052 189.725 594.052 189.725ZM411.827 501.687C424.382 531.692 428.275 594.052 428.275 594.052C428.275 594.052 384.737 543.057 374.042 517.497C369.676 507.063 374.595 495.065 385.029 490.7C395.463 486.334 407.461 491.253 411.827 501.687ZM189.725 23.9484C189.725 23.9484 193.618 86.3079 206.173 116.313C210.539 126.747 222.537 131.666 232.971 127.3C243.405 122.935 248.324 110.937 243.958 100.503C233.262 74.9428 189.725 23.9484 189.725 23.9484ZM260.81 199.374C260.81 207.691 254.068 214.433 245.752 214.433C237.435 214.433 230.693 207.691 230.693 199.374C230.693 191.057 237.435 184.316 245.752 184.316C254.068 184.316 260.81 191.057 260.81 199.374ZM372.845 184.316C378.267 184.316 387.302 188.532 387.302 199.374C387.302 209.011 379.471 213.83 372.845 213.83C366.22 213.83 358.389 209.011 358.389 198.772C358.389 188.532 366.822 184.316 372.845 184.316ZM365.015 216.842C366.621 218.448 370.436 221.661 372.845 221.661C375.255 221.661 378.668 218.448 380.073 216.842C383.085 216.44 389.952 216.721 393.325 221.058C397.541 226.479 398.144 227.684 407.179 248.766C414.407 265.631 415.812 270.651 415.611 271.052C416.214 273.06 416.816 277.317 414.407 278.28C411.395 279.485 409.588 277.678 407.179 272.859C405.251 269.004 394.73 247.561 389.711 237.321L392.12 346.947C392.12 348.955 390.915 352.971 386.097 352.971C380.073 352.971 378.869 349.357 378.869 345.742C378.869 342.851 374.452 302.374 372.243 282.497L366.22 345.742C366.22 348.152 364.774 352.971 358.991 352.971C354.173 352.971 352.968 347.549 353.57 343.935L355.378 237.924L335.5 276.473C334.697 277.277 332.489 278.521 330.079 277.076C327.67 275.63 329.477 270.852 330.682 268.643C335.5 254.388 346.343 224.913 351.161 221.058C355.98 217.203 362.405 216.641 365.015 216.842ZM308.997 289.123C314.32 289.123 318.635 284.808 318.635 279.485C318.635 274.163 314.32 269.848 308.997 269.848C303.675 269.848 299.36 274.163 299.36 279.485C299.36 284.808 303.675 289.123 308.997 289.123ZM219.249 296.953L230.091 237.924C224.67 247.762 213.226 268.523 210.816 272.859C207.805 278.28 205.997 279.485 202.986 277.678C200.576 276.233 202.383 271.052 203.588 268.643C208.206 258.203 218.406 235.153 222.261 226.479C226.116 217.806 234.709 216.039 238.524 216.24L245.752 231.9L252.378 216.24C262.015 216.24 268.038 223.869 269.845 227.684L286.109 266.234C287.916 269.848 290.807 277.317 287.916 278.28C285.024 279.244 282.695 277.076 281.892 275.871L261.413 237.924L271.652 296.953H261.413L258.401 349.357C258.2 350.561 257.076 352.971 254.185 352.971C251.293 352.971 250.571 350.561 250.571 349.357L247.559 296.953H243.945L240.933 348.152C240.732 349.758 239.608 352.971 236.717 352.971C233.826 352.971 233.103 350.561 233.103 349.357L230.091 296.953H219.249ZM278.278 278.28C278.68 277.477 280.085 276.594 282.495 279.485C284.904 282.376 292.734 288.721 296.348 291.532H320.442C324.658 288.319 333.573 281.292 335.5 278.883C336.304 278.08 338.271 276.714 339.717 277.678C341.524 278.883 340.319 281.895 337.307 284.906C336.61 285.604 335.912 286.399 335.109 287.313L335.109 287.314C332.447 290.345 328.632 294.691 319.84 301.169V324.058L320.442 349.357C320.442 350.561 319.84 352.971 317.43 352.971C315.021 352.971 314.017 351.364 313.816 350.561L308.997 323.456L304.179 350.561C303.978 351.364 302.974 352.971 300.565 352.971C298.155 352.971 297.553 350.561 297.553 349.357L299.36 324.058L298.758 300.567C295.947 299.362 289.12 295.387 284.302 289.123L277.676 280.69C277.475 280.148 277.314 278.908 278.278 278.28Z" fill="white"/>
</svg>
