<svg width="26" height="26" viewBox="0 0 26 26" fill="none" xmlns="http://www.w3.org/2000/svg">
<path fill-rule="evenodd" clip-rule="evenodd" d="M13 26C20.1797 26 26 20.1797 26 13C26 5.8203 20.1797 0 13 0C5.8203 0 0 5.8203 0 13C0 20.1797 5.8203 26 13 26ZM12.4768 22.074H12.948H12.9968H13.468C13.4897 20.696 13.9516 17.6722 15.626 16.601C17.3004 15.5298 18.889 15.4787 19.474 15.587C20.2583 14.0487 21.324 10.569 19.266 7.358C17.433 4.498 14.378 4.069 13.234 4.069L13.2339 4.07516C13.1561 4.0712 13.0819 4.069 13.013 4.069C12.9045 4.069 12.8037 4.07009 12.7109 4.07193L12.7108 4.069C12.5682 4.069 12.3959 4.07567 12.2 4.09287C12.1185 4.09839 12.0595 4.10386 12.025 4.108L12.0251 4.11045C10.6175 4.26938 8.21757 4.95712 6.67882 7.358C4.62086 10.569 5.68649 14.0487 6.47082 15.587C7.05582 15.4787 8.64442 15.5298 10.3188 16.601C11.9932 17.6722 12.4552 20.696 12.4768 22.074Z" fill="#32A23A"/>
</svg>
