<svg width="139" height="139" viewBox="0 0 139 139" fill="none" xmlns="http://www.w3.org/2000/svg">
<path d="M69.5 0C69.5 0 64.8938 13.2768 64.8938 20.5926C64.8938 23.1365 66.956 25.1988 69.5 25.1988C72.044 25.1988 74.1062 23.1365 74.1062 20.5926C74.1062 14.3606 69.5 0 69.5 0Z" fill="white" fill-opacity="0.05"/>
<path fill-rule="evenodd" clip-rule="evenodd" d="M69.5 108.653C91.1984 108.653 108.788 91.063 108.788 69.3645C108.788 47.6661 91.1984 30.076 69.5 30.076C47.8015 30.076 30.2115 47.6661 30.2115 69.3645C30.2115 77.2686 32.5455 84.6275 36.562 90.7896C38.2002 90.1657 40.149 89.2925 41.0497 88.4669C41.3432 88.1978 41.6766 87.8447 42.0553 87.4436C43.7736 85.6236 46.4258 82.8144 50.5331 82.3704C54.5433 81.9368 61.0552 83.7252 63.8099 84.6735L75.8674 87.9249C76.6351 88.1507 78.0621 88.9004 77.6286 90.0926C77.0867 91.5828 75.0546 91.5828 73.6998 91.5828C73.1469 91.5828 72.2782 91.4926 71.2501 91.3858L71.2484 91.3856C69.7576 91.2307 67.9319 91.0409 66.2485 91.0409C63.9725 91.0409 60.3326 91.9441 58.7972 92.3957C59.3391 92.5763 60.6939 92.8834 61.7777 92.6667C62.0999 92.6022 62.4679 92.5149 62.8638 92.4209C64.1327 92.1196 65.6867 91.7505 66.9259 91.8538C67.3566 91.8897 67.9584 91.9446 68.6306 92.0059C70.4958 92.1761 72.9032 92.3957 73.6998 92.3957C73.7526 92.3957 73.8102 92.396 73.8721 92.3964C75.081 92.4032 77.926 92.419 78.4415 90.2281C78.577 89.6862 78.4957 88.4127 77.0867 87.654C78.577 86.8863 82.2078 84.7819 84.8089 82.5059C88.0604 79.6608 90.6345 78.9834 93.344 80.3382C95.5117 81.422 93.7053 83.68 92.5312 84.6735C90.6796 86.9315 86.4076 91.7725 84.1315 93.0731C81.8555 94.3737 75.0546 98.3116 71.9386 100.118C70.7193 100.75 67.2239 101.689 62.997 100.389C57.7134 98.7632 52.9717 97.4084 50.9395 97.5439C48.9074 97.6793 45.9269 98.4922 44.3011 99.4406L44.2492 99.4653C51.0776 105.2 59.8855 108.653 69.5 108.653ZM58.6614 44.8431C58.6614 46.7136 57.1451 48.23 55.2745 48.23C53.4039 48.23 51.8876 46.7136 51.8876 44.8431C51.8876 42.9725 53.4039 41.4562 55.2745 41.4562C57.1451 41.4562 58.6614 42.9725 58.6614 44.8431ZM83.8602 41.4562C85.0796 41.4562 87.1117 42.4045 87.1117 44.8431C87.1117 47.0107 85.3504 48.0946 83.8602 48.0946C82.37 48.0946 80.6088 47.0107 80.6088 44.7076C80.6088 42.4045 82.5054 41.4562 83.8602 41.4562ZM82.099 48.7719C82.4603 49.1332 83.3183 49.8558 83.8602 49.8558C84.4021 49.8558 85.1699 49.1332 85.486 48.7719C86.1633 48.6816 87.7078 48.7448 88.4665 49.7203C89.4148 50.9396 89.5503 51.2105 91.5825 55.9523C93.2082 59.7456 93.5243 60.8746 93.4791 60.9649C93.6146 61.4165 93.7501 62.3739 93.2082 62.5907C92.5308 62.8616 92.1244 62.4552 91.5825 61.3714C91.1489 60.5043 88.7826 55.6813 87.6536 53.3782L88.1955 78.0351C88.1955 78.4867 87.9246 79.3899 86.8407 79.3899C85.486 79.3899 85.215 78.577 85.215 77.7641C85.215 77.1139 84.2215 68.0098 83.7248 63.539L82.37 77.7641C82.37 78.3061 82.0448 79.3899 80.7442 79.3899C79.6605 79.3899 79.3895 78.1706 79.5249 77.3577L79.9314 53.5137L75.4607 62.1842C75.28 62.3649 74.7833 62.6449 74.2414 62.3197C73.6994 61.9946 74.1059 60.9198 74.3768 60.423C75.4607 57.2167 77.8993 50.5873 78.9831 49.7203C80.0669 48.8532 81.512 48.7268 82.099 48.7719ZM69.4996 65.0293C70.6968 65.0293 71.6673 64.0588 71.6673 62.8616C71.6673 61.6645 70.6968 60.694 69.4996 60.694C68.3025 60.694 67.332 61.6645 67.332 62.8616C67.332 64.0588 68.3025 65.0293 69.4996 65.0293ZM49.3135 66.7905L51.7521 53.5137C50.5328 55.7265 47.9587 60.3959 47.4168 61.3714C46.7394 62.5907 46.333 62.8616 45.6556 62.4552C45.1137 62.13 45.5201 60.9649 45.7911 60.423C46.8297 58.0747 49.1238 52.8905 49.9909 50.9396C50.8579 48.9887 52.7907 48.5913 53.6488 48.6365L55.2745 52.1589L56.7648 48.6365C58.9324 48.6365 60.2872 50.3525 60.6936 51.2105L64.3515 59.8811C64.7579 60.694 65.4082 62.3739 64.7579 62.5907C64.1076 62.8074 63.5838 62.3197 63.4032 62.0487L58.7969 53.5137L61.1 66.7905H58.7969L58.1195 78.577C58.0744 78.848 57.8215 79.3899 57.1712 79.3899C56.5209 79.3899 56.3583 78.848 56.3583 78.577L55.6809 66.7905H54.8681L54.1907 78.3061C54.1455 78.6673 53.8926 79.3899 53.2423 79.3899C52.592 79.3899 52.4295 78.848 52.4295 78.577L51.7521 66.7905H49.3135ZM62.5903 62.5907C62.6806 62.41 62.9967 62.2113 63.5386 62.8616C64.0805 63.5119 65.8418 64.9389 66.6546 65.5712H72.0737C73.0221 64.8486 75.0271 63.268 75.4607 62.7261C75.6413 62.5455 76.0839 62.2384 76.409 62.4552C76.8154 62.7261 76.5445 63.4035 75.8671 64.0809C75.7101 64.2379 75.5532 64.4167 75.3726 64.6223C74.7739 65.3042 73.9158 66.2816 71.9382 67.7388V72.887L72.0737 78.577C72.0737 78.848 71.9382 79.3899 71.3963 79.3899C70.8544 79.3899 70.6286 79.0286 70.5835 78.848L69.4996 72.7515L68.4158 78.848C68.3707 79.0286 68.1449 79.3899 67.603 79.3899C67.0611 79.3899 66.9256 78.848 66.9256 78.577L67.332 72.887L67.1965 67.6033C66.5643 67.3324 65.0289 66.4382 63.9451 65.0293L62.4548 63.1326C62.4097 63.0108 62.3735 62.7318 62.5903 62.5907Z" fill="white" fill-opacity="0.05"/>
<path d="M74.1062 118.407C74.1062 125.723 69.5 139 69.5 139C69.5 139 64.8938 124.639 64.8938 118.407C64.8938 115.863 66.956 113.801 69.5 113.801C72.044 113.801 74.1062 115.863 74.1062 118.407Z" fill="white" fill-opacity="0.05"/>
<path d="M118.407 64.8938C125.723 64.8938 139 69.5 139 69.5C139 69.5 124.639 74.1062 118.407 74.1062C115.863 74.1062 113.801 72.0439 113.801 69.5C113.801 66.956 115.863 64.8938 118.407 64.8938Z" fill="white" fill-opacity="0.05"/>
<path d="M0 69.5C0 69.5 13.2768 74.1062 20.5926 74.1062C23.1365 74.1062 25.1988 72.044 25.1988 69.5C25.1988 66.956 23.1365 64.8938 20.5926 64.8938C14.3606 64.8938 0 69.5 0 69.5Z" fill="white" fill-opacity="0.05"/>
<path d="M38.1743 107.34C33.0013 112.513 20.3561 118.644 20.3561 118.644C20.3561 118.644 27.2535 105.232 31.6601 100.826C33.459 99.0268 36.3755 99.0268 38.1743 100.826C39.9732 102.625 39.9732 105.541 38.1743 107.34Z" fill="white" fill-opacity="0.05"/>
<path d="M118.644 20.3561C118.644 20.3561 105.999 26.4871 100.826 31.6601C99.0268 33.459 99.0268 36.3755 100.826 38.1743C102.625 39.9732 105.541 39.9732 107.34 38.1743C111.747 33.7677 118.644 20.3561 118.644 20.3561Z" fill="white" fill-opacity="0.05"/>
<path d="M107.34 100.826C112.513 105.999 118.644 118.644 118.644 118.644C118.644 118.644 105.232 111.747 100.826 107.34C99.0268 105.541 99.0268 102.625 100.826 100.826C102.625 99.0268 105.541 99.0268 107.34 100.826Z" fill="white" fill-opacity="0.05"/>
<path d="M20.3561 20.3561C20.3561 20.3561 26.4871 33.0013 31.6601 38.1743C33.459 39.9732 36.3755 39.9732 38.1743 38.1743C39.9732 36.3755 39.9732 33.459 38.1743 31.6601C33.7677 27.2535 20.3561 20.3561 20.3561 20.3561Z" fill="white" fill-opacity="0.05"/>
<path d="M55.2085 116.499C52.4332 123.268 43.1346 133.805 43.1346 133.805C43.1346 133.805 44.3205 118.77 46.6847 113.004C47.6497 110.65 50.3402 109.525 52.694 110.49C55.0478 111.455 56.1736 114.145 55.2085 116.499Z" fill="white" fill-opacity="0.05"/>
<path d="M95.8653 5.19511C95.8653 5.19511 86.5668 15.7321 83.7915 22.501C82.8264 24.8548 83.9522 27.5453 86.306 28.5103C88.6598 29.4754 91.3502 28.3496 92.3153 25.9958C94.6795 20.2297 95.8653 5.19511 95.8653 5.19511Z" fill="white" fill-opacity="0.05"/>
<path d="M116.499 83.7915C123.268 86.5668 133.805 95.8653 133.805 95.8653C133.805 95.8653 118.77 94.6795 113.004 92.3153C110.65 91.3502 109.525 88.6598 110.49 86.306C111.455 83.9522 114.145 82.8264 116.499 83.7915Z" fill="white" fill-opacity="0.05"/>
<path d="M5.1951 43.1347C5.1951 43.1347 15.7321 52.4332 22.501 55.2085C24.8548 56.1736 27.5453 55.0478 28.5103 52.694C29.4754 50.3402 28.3496 47.6497 25.9958 46.6847C20.2297 44.3205 5.1951 43.1347 5.1951 43.1347Z" fill="white" fill-opacity="0.05"/>
<path d="M26.1611 92.6277C19.4123 95.4516 5.38645 96.3273 5.38645 96.3273C5.38645 96.3273 16.8561 86.5348 22.605 84.1292C24.9518 83.1473 27.6503 84.2537 28.6323 86.6004C29.6143 88.9472 28.5079 91.6457 26.1611 92.6277Z" fill="white" fill-opacity="0.05"/>
<path d="M133.614 42.6727C133.614 42.6727 119.588 43.5484 112.839 46.3723C110.492 47.3543 109.386 50.0528 110.368 52.3995C111.35 54.7463 114.048 55.8527 116.395 54.8708C122.144 52.4652 133.614 42.6727 133.614 42.6727Z" fill="white" fill-opacity="0.05"/>
<path d="M92.6277 112.839C95.4516 119.588 96.3273 133.614 96.3273 133.614C96.3273 133.614 86.5348 122.144 84.1292 116.395C83.1472 114.048 84.2537 111.35 86.6004 110.368C88.9472 109.386 91.6457 110.492 92.6277 112.839Z" fill="white" fill-opacity="0.05"/>
<path d="M42.6727 5.38646C42.6727 5.38646 43.5483 19.4123 46.3723 26.1611C47.3543 28.5079 50.0528 29.6143 52.3995 28.6323C54.7463 27.6503 55.8527 24.9518 54.8708 22.605C52.4652 16.8561 42.6727 5.38646 42.6727 5.38646Z" fill="white" fill-opacity="0.05"/>
</svg>
