<svg width="52" height="52" viewBox="0 0 52 52" fill="none" xmlns="http://www.w3.org/2000/svg">
<path d="M26 0C26 0 24.2768 4.96686 24.2768 7.7037C24.2768 8.6554 25.0483 9.4269 26 9.4269C26.9517 9.4269 27.7232 8.6554 27.7232 7.7037C27.7232 5.37232 26 0 26 0Z" fill="#1BBF19"/>
<path fill-rule="evenodd" clip-rule="evenodd" d="M26 40.6472C34.1174 40.6472 40.6978 34.0667 40.6978 25.9493C40.6978 17.8319 34.1174 11.2515 26 11.2515C17.8826 11.2515 11.3021 17.8319 11.3021 25.9493C11.3021 28.9062 12.1753 31.6592 13.6779 33.9645C14.2907 33.731 15.0198 33.4044 15.3567 33.0955C15.4665 32.9948 15.5913 32.8628 15.7329 32.7127C16.3758 32.0318 17.3679 30.9809 18.9045 30.8148C20.4047 30.6526 22.8408 31.3216 23.8713 31.6764L28.3821 32.8928C28.6693 32.9773 29.2031 33.2577 29.0409 33.7037C28.8382 34.2612 28.078 34.2612 27.5711 34.2612C27.3643 34.2612 27.0393 34.2274 26.6546 34.1875C26.0969 34.1295 25.4133 34.0585 24.7836 34.0585C23.9321 34.0585 22.5705 34.3964 21.9961 34.5653C22.1988 34.6329 22.7056 34.7477 23.1111 34.6667C23.2314 34.6426 23.3688 34.61 23.5166 34.5749C23.9913 34.4622 24.5734 34.3239 25.037 34.3626C25.1981 34.376 25.4233 34.3965 25.6747 34.4195C26.3725 34.4831 27.2731 34.5653 27.5711 34.5653L27.6356 34.5656C28.0879 34.5681 29.1522 34.574 29.345 33.7544C29.3957 33.5517 29.3653 33.0752 28.8382 32.7914C29.3957 32.5042 30.754 31.717 31.7271 30.8655C32.9435 29.8012 33.9064 29.5478 34.9201 30.0546C35.731 30.46 35.0552 31.3047 34.616 31.6764C33.9233 32.5211 32.3251 34.3322 31.4737 34.8187C30.6222 35.3053 28.078 36.7784 26.9123 37.4542C26.4561 37.6907 25.1485 38.0421 23.5672 37.5556C21.5906 36.9474 19.8168 36.4405 19.0565 36.4912C18.2963 36.5419 17.1813 36.846 16.5731 37.2008L16.5536 37.21C19.1082 39.3552 22.4032 40.6472 26 40.6472ZM21.9453 16.7758C21.9453 17.4756 21.378 18.0429 20.6782 18.0429C19.9785 18.0429 19.4112 17.4756 19.4112 16.7758C19.4112 16.0761 19.9785 15.5088 20.6782 15.5088C21.378 15.5088 21.9453 16.0761 21.9453 16.7758ZM31.3722 15.5088C31.8283 15.5088 32.5886 15.8636 32.5886 16.7758C32.5886 17.5868 31.9297 17.9922 31.3722 17.9922C30.8147 17.9922 30.1558 17.5868 30.1558 16.7252C30.1558 15.8636 30.8653 15.5088 31.3722 15.5088ZM30.7133 18.2456C30.8485 18.3808 31.1695 18.6511 31.3722 18.6511C31.5749 18.6511 31.8621 18.3808 31.9804 18.2456C32.2338 18.2118 32.8116 18.2355 33.0954 18.6004C33.4502 19.0565 33.5008 19.1579 34.2611 20.9318C34.8693 22.3509 34.9875 22.7732 34.9706 22.807C35.0213 22.976 35.072 23.3341 34.8693 23.4152C34.6159 23.5166 34.4638 23.3645 34.2611 22.9591C34.0989 22.6347 33.2136 20.8304 32.7913 19.9688L32.994 29.193C32.994 29.3619 32.8927 29.6998 32.4872 29.6998C31.9804 29.6998 31.879 29.3957 31.879 29.0916C31.879 28.8484 31.5073 25.4425 31.3215 23.77L30.8147 29.0916C30.8147 29.2944 30.693 29.6998 30.2065 29.6998C29.8011 29.6998 29.6997 29.2437 29.7504 28.9396L29.9024 20.0195L28.2299 23.2632C28.1623 23.3307 27.9765 23.4355 27.7738 23.3139C27.571 23.1922 27.7231 22.7901 27.8244 22.6043C28.2299 21.4048 29.1422 18.9248 29.5476 18.6004C29.9531 18.276 30.4937 18.2287 30.7133 18.2456ZM25.9999 24.3275C26.4477 24.3275 26.8108 23.9644 26.8108 23.5166C26.8108 23.0687 26.4477 22.7057 25.9999 22.7057C25.552 22.7057 25.189 23.0687 25.189 23.5166C25.189 23.9644 25.552 24.3275 25.9999 24.3275ZM18.4482 24.9864L19.3605 20.0195C18.9044 20.8473 17.9414 22.5942 17.7387 22.9591C17.4853 23.4152 17.3332 23.5166 17.0798 23.3645C16.8771 23.2429 17.0291 22.807 17.1305 22.6043C17.5191 21.7258 18.3773 19.7864 18.7016 19.0565C19.026 18.3267 19.7491 18.178 20.0701 18.1949L20.6782 19.5127L21.2357 18.1949C22.0467 18.1949 22.5535 18.8369 22.7055 19.1579L24.074 22.4016C24.226 22.7057 24.4693 23.3341 24.226 23.4152C23.9827 23.4963 23.7868 23.3138 23.7192 23.2125L21.996 20.0195L22.8576 24.9864H21.996L21.7426 29.3957C21.7257 29.4971 21.6311 29.6998 21.3878 29.6998C21.1445 29.6998 21.0837 29.4971 21.0837 29.3957L20.8303 24.9864H20.5262L20.2728 29.2944C20.2559 29.4295 20.1613 29.6998 19.918 29.6998C19.6747 29.6998 19.6139 29.4971 19.6139 29.3957L19.3605 24.9864H18.4482ZM23.4151 23.4152C23.4489 23.3476 23.5671 23.2733 23.7699 23.5166C23.9726 23.7599 24.6315 24.2937 24.9356 24.5302H26.9628C27.3176 24.2599 28.0677 23.6686 28.2299 23.4659C28.2975 23.3983 28.463 23.2834 28.5847 23.3645C28.7367 23.4659 28.6354 23.7193 28.382 23.9727C28.3232 24.0314 28.2645 24.0983 28.197 24.1753C27.973 24.4304 27.652 24.796 26.9122 25.3411V27.2671L26.9628 29.3957C26.9628 29.4971 26.9122 29.6998 26.7094 29.6998C26.5067 29.6998 26.4222 29.5647 26.4053 29.4971L25.9999 27.2164L25.5944 29.4971C25.5775 29.5647 25.4931 29.6998 25.2903 29.6998C25.0876 29.6998 25.0369 29.4971 25.0369 29.3957L25.189 27.2671L25.1383 25.2905C24.9018 25.1891 24.3274 24.8546 23.9219 24.3275L23.3644 23.6179C23.3475 23.5724 23.334 23.468 23.4151 23.4152Z" fill="#1BBF19"/>
<path d="M27.7232 44.2963C27.7232 47.0331 26 52 26 52C26 52 24.2768 46.6277 24.2768 44.2963C24.2768 43.3446 25.0483 42.5731 26 42.5731C26.9517 42.5731 27.7232 43.3446 27.7232 44.2963Z" fill="#1BBF19"/>
<path d="M44.2963 24.2768C47.0331 24.2768 52 26 52 26C52 26 46.6277 27.7232 44.2963 27.7232C43.3446 27.7232 42.5731 26.9517 42.5731 26C42.5731 25.0483 43.3446 24.2768 44.2963 24.2768Z" fill="#1BBF19"/>
<path d="M0 26C0 26 4.96686 27.7232 7.7037 27.7232C8.6554 27.7232 9.4269 26.9517 9.4269 26C9.4269 25.0483 8.6554 24.2768 7.7037 24.2768C5.37232 24.2768 0 26 0 26Z" fill="#1BBF19"/>
<path d="M14.281 40.1559C12.3458 42.0912 7.61522 44.3848 7.61522 44.3848C7.61522 44.3848 10.1955 39.3675 11.8441 37.719C12.517 37.046 13.6081 37.046 14.281 37.719C14.954 38.3919 14.954 39.483 14.281 40.1559Z" fill="#1BBF19"/>
<path d="M44.3848 7.61522C44.3848 7.61522 39.6542 9.90884 37.719 11.8441C37.046 12.517 37.046 13.6081 37.719 14.281C38.3919 14.954 39.483 14.954 40.1559 14.281C41.8045 12.6325 44.3848 7.61522 44.3848 7.61522Z" fill="#1BBF19"/>
<path d="M40.1559 37.719C42.0912 39.6542 44.3848 44.3848 44.3848 44.3848C44.3848 44.3848 39.3675 41.8045 37.719 40.1559C37.046 39.483 37.046 38.3919 37.719 37.719C38.3919 37.046 39.483 37.046 40.1559 37.719Z" fill="#1BBF19"/>
<path d="M7.61522 7.61522C7.61522 7.61522 9.90884 12.3458 11.8441 14.281C12.517 14.954 13.6081 14.954 14.281 14.281C14.954 13.6081 14.954 12.517 14.281 11.8441C12.6325 10.1955 7.61522 7.61522 7.61522 7.61522Z" fill="#1BBF19"/>
<path d="M20.6535 43.5824C19.6153 46.1146 16.1367 50.0565 16.1367 50.0565C16.1367 50.0565 16.5803 44.4321 17.4648 42.2749C17.8258 41.3944 18.8323 40.9732 19.7129 41.3343C20.5934 41.6953 21.0146 42.7018 20.6535 43.5824Z" fill="#1BBF19"/>
<path d="M35.8633 1.94349C35.8633 1.94349 32.3847 5.88538 31.3464 8.41764C30.9854 9.2982 31.4066 10.3047 32.2871 10.6657C33.1677 11.0268 34.1742 10.6056 34.5352 9.72506C35.4196 7.56794 35.8633 1.94349 35.8633 1.94349Z" fill="#1BBF19"/>
<path d="M43.5824 31.3464C46.1146 32.3847 50.0565 35.8633 50.0565 35.8633C50.0565 35.8633 44.4321 35.4196 42.2749 34.5352C41.3944 34.1742 40.9732 33.1677 41.3343 32.2871C41.6953 31.4066 42.7018 30.9854 43.5824 31.3464Z" fill="#1BBF19"/>
<path d="M1.94349 16.1367C1.94349 16.1367 5.88537 19.6153 8.41764 20.6535C9.29819 21.0146 10.3047 20.5934 10.6657 19.7129C11.0268 18.8323 10.6056 17.8258 9.72505 17.4648C7.56794 16.5803 1.94349 16.1367 1.94349 16.1367Z" fill="#1BBF19"/>
<path d="M9.78688 34.6521C7.26215 35.7085 2.01507 36.0361 2.01507 36.0361C2.01507 36.0361 6.30586 32.3727 8.45656 31.4728C9.33449 31.1054 10.344 31.5194 10.7114 32.3973C11.0787 33.2752 10.6648 34.2847 9.78688 34.6521Z" fill="#1BBF19"/>
<path d="M49.9849 15.9639C49.9849 15.9639 44.7378 16.2915 42.2131 17.3479C41.3352 17.7153 40.9213 18.7248 41.2886 19.6027C41.656 20.4806 42.6655 20.8945 43.5434 20.5272C45.6941 19.6273 49.9849 15.9639 49.9849 15.9639Z" fill="#1BBF19"/>
<path d="M34.6521 42.2131C35.7085 44.7378 36.0361 49.9849 36.0361 49.9849C36.0361 49.9849 32.3727 45.6941 31.4728 43.5434C31.1054 42.6655 31.5194 41.656 32.3973 41.2886C33.2752 40.9213 34.2847 41.3352 34.6521 42.2131Z" fill="#1BBF19"/>
<path d="M15.9639 2.01508C15.9639 2.01508 16.2915 7.26215 17.3479 9.78688C17.7153 10.6648 18.7248 11.0787 19.6027 10.7114C20.4806 10.344 20.8945 9.33449 20.5272 8.45656C19.6273 6.30586 15.9639 2.01508 15.9639 2.01508Z" fill="#1BBF19"/>
</svg>
