<svg width="36" height="36" viewBox="0 0 36 36" fill="none" xmlns="http://www.w3.org/2000/svg">
<rect width="36" height="36" rx="8" fill="white"/>
<path fill-rule="evenodd" clip-rule="evenodd" d="M10.9165 14.5166C10.9165 13.0167 10.9165 12.2668 11.2985 11.7411C11.4218 11.5713 11.5711 11.422 11.7409 11.2986C12.2667 10.9166 13.0166 10.9166 14.5165 10.9166H21.4832C22.9831 10.9166 23.733 10.9166 24.2587 11.2986C24.4285 11.422 24.5778 11.5713 24.7012 11.7411C25.0832 12.2668 25.0832 13.0167 25.0832 14.5166V21.4833C25.0832 22.9832 25.0832 23.7331 24.7012 24.2589C24.5778 24.4287 24.4285 24.578 24.2587 24.7013C23.733 25.0833 22.9831 25.0833 21.4832 25.0833H14.5165C13.0166 25.0833 12.2667 25.0833 11.7409 24.7013C11.5711 24.578 11.4218 24.4287 11.2985 24.2589C10.9165 23.7331 10.9165 22.9832 10.9165 21.4833V14.5166ZM17.9998 14.25C15.9289 14.25 14.2498 15.929 14.2498 18C14.2498 20.0709 15.9289 21.75 17.9998 21.75C20.0708 21.75 21.7498 20.0709 21.7498 18C21.7498 15.929 20.0708 14.25 17.9998 14.25ZM17.9998 20.3437C16.708 20.3437 15.6561 19.2918 15.6561 18C15.6561 16.7071 16.708 15.6562 17.9998 15.6562C19.2917 15.6562 20.3436 16.7071 20.3436 18C20.3436 19.2918 19.2917 20.3437 17.9998 20.3437ZM22.5308 13.9687C22.5308 14.2447 22.3071 14.4684 22.0311 14.4684C21.7551 14.4684 21.5314 14.2447 21.5314 13.9687C21.5314 13.6927 21.7551 13.469 22.0311 13.469C22.3071 13.469 22.5308 13.6927 22.5308 13.9687Z" fill="#22262F"/>
</svg>
