<svg width="93" height="22" viewBox="0 0 93 22" fill="none" xmlns="http://www.w3.org/2000/svg">
<path fill-rule="evenodd" clip-rule="evenodd" d="M6.30277 9.42862C8.63408 9.42862 10.524 7.59938 10.524 5.34289C10.524 3.0864 8.63408 1.25715 6.30277 1.25715C3.97146 1.25715 2.08155 3.0864 2.08155 5.34289C2.08155 7.59938 3.97146 9.42862 6.30277 9.42862ZM6.30277 10.6858C9.35141 10.6858 11.8228 8.29368 11.8228 5.34289C11.8228 2.39209 9.35141 0 6.30277 0C3.25413 0 0.782715 2.39209 0.782715 5.34289C0.782715 8.29368 3.25413 10.6858 6.30277 10.6858Z" fill="#59EA84"/>
<path fill-rule="evenodd" clip-rule="evenodd" d="M6.30277 20.7431C8.63408 20.7431 10.524 18.9138 10.524 16.6573C10.524 14.4008 8.63408 12.5716 6.30277 12.5716C3.97146 12.5716 2.08155 14.4008 2.08155 16.6573C2.08155 18.9138 3.97146 20.7431 6.30277 20.7431ZM6.30277 22.0002C9.35141 22.0002 11.8228 19.6081 11.8228 16.6573C11.8228 13.7065 9.35141 11.3145 6.30277 11.3145C3.25413 11.3145 0.782715 13.7065 0.782715 16.6573C0.782715 19.6081 3.25413 22.0002 6.30277 22.0002Z" fill="#B464E5"/>
<path fill-rule="evenodd" clip-rule="evenodd" d="M17.9922 9.42862C20.3235 9.42862 22.2134 7.59938 22.2134 5.34289C22.2134 3.0864 20.3235 1.25715 17.9922 1.25715C15.6609 1.25715 13.771 3.0864 13.771 5.34289C13.771 7.59938 15.6609 9.42862 17.9922 9.42862ZM17.9922 10.6858C21.0409 10.6858 23.5123 8.29368 23.5123 5.34289C23.5123 2.39209 21.0409 0 17.9922 0C14.9436 0 12.4722 2.39209 12.4722 5.34289C12.4722 8.29368 14.9436 10.6858 17.9922 10.6858Z" fill="#3FB4F8"/>
<path fill-rule="evenodd" clip-rule="evenodd" d="M17.9917 20.7431C20.323 20.7431 22.213 18.9138 22.213 16.6573C22.213 14.4008 20.323 12.5716 17.9917 12.5716C15.6604 12.5716 13.7705 14.4008 13.7705 16.6573C13.7705 18.9138 15.6604 20.7431 17.9917 20.7431ZM17.9917 22.0002C21.0404 22.0002 23.5118 19.6081 23.5118 16.6573C23.5118 13.7065 21.0404 11.3145 17.9917 11.3145C14.9431 11.3145 12.4717 13.7065 12.4717 16.6573C12.4717 19.6081 14.9431 22.0002 17.9917 22.0002Z" fill="#FFCF26"/>
<path d="M30.0068 14.9343V5.80979H31.123V14.9343H30.0068ZM32.7114 10.0402L37.3192 14.9343H35.9025L31.2518 10.0402L35.5018 5.80979H36.9328L32.7114 10.0402Z" fill="#585858"/>
<path d="M45.6163 14.9343L44.8149 13.0817H40.1785L39.3771 14.9343H38.2037L42.2964 5.65771H42.7114L46.804 14.9343H45.6163ZM44.3856 12.114L42.4967 7.62086L40.6078 12.114H44.3856Z" fill="#585858"/>
<path d="M49.4525 13.9665H55.1908V14.9343H47.7067V14.6163L53.4021 6.77754H48.3221V5.80979H55.1765V6.12776L49.4525 13.9665Z" fill="#585858"/>
<path d="M56.9777 14.9343V5.80979H58.0938V14.9343H56.9777Z" fill="#585858"/>
<path d="M67.0917 5.80979H68.2079V15.0863H67.8072L61.7971 8.09091V14.9343H60.6809V5.65771H61.0816L67.0917 12.667V5.80979Z" fill="#585858"/>
<path d="M70.0969 13.1232L70.9269 12.5287C71.6329 13.5702 72.5105 14.0909 73.5599 14.0909C74.1323 14.0909 74.5902 13.9527 74.9337 13.6762C75.2867 13.3997 75.4632 13.031 75.4632 12.5702C75.4632 12.1831 75.3487 11.8928 75.1197 11.6992C74.9003 11.4965 74.4901 11.2522 73.8891 10.9665L72.8301 10.4826C72.1146 10.16 71.5804 9.81442 71.2274 9.44575C70.8744 9.07709 70.698 8.60704 70.698 8.03561C70.698 7.33514 70.9746 6.76371 71.5279 6.32131C72.0812 5.87891 72.7538 5.65771 73.5456 5.65771C74.1657 5.65771 74.7333 5.80057 75.2485 6.08629C75.7732 6.36279 76.193 6.73606 76.5078 7.20611L75.6921 7.80058C75.1579 7.0356 74.4376 6.65311 73.5313 6.65311C73.0543 6.65311 72.6536 6.77293 72.3293 7.01256C72.0145 7.25219 71.8571 7.57478 71.8571 7.98031C71.8571 8.24759 71.9191 8.46879 72.0431 8.64391C72.1576 8.80981 72.3054 8.94806 72.4867 9.05865C72.668 9.16925 72.9637 9.32133 73.3739 9.51488L74.4185 9.99875C75.1913 10.3674 75.7494 10.7407 76.0928 11.1186C76.4458 11.4965 76.6223 11.9711 76.6223 12.5425C76.6223 13.2891 76.3361 13.902 75.7637 14.3813C75.1913 14.8513 74.4615 15.0863 73.5742 15.0863C72.8492 15.0863 72.1814 14.9158 71.5709 14.5748C70.9603 14.2246 70.469 13.7407 70.0969 13.1232Z" fill="#585858"/>
<path d="M85.5226 5.80979L82.2456 11.16V14.9343H81.1294V11.16L77.8525 5.80979H79.1117L81.6875 10.0955L84.2776 5.80979H85.5226Z" fill="#585858"/>
<path d="M86.4751 13.1232L87.3051 12.5287C88.011 13.5702 88.8887 14.0909 89.9381 14.0909C90.5105 14.0909 90.9684 13.9527 91.3118 13.6762C91.6648 13.3997 91.8413 13.031 91.8413 12.5702C91.8413 12.1831 91.7268 11.8928 91.4978 11.6992C91.2784 11.4965 90.8682 11.2522 90.2672 10.9665L89.2083 10.4826C88.4928 10.16 87.9585 9.81442 87.6056 9.44575C87.2526 9.07709 87.0761 8.60704 87.0761 8.03561C87.0761 7.33514 87.3527 6.76371 87.9061 6.32131C88.4594 5.87891 89.1319 5.65771 89.9238 5.65771C90.5439 5.65771 91.1115 5.80057 91.6266 6.08629C92.1513 6.36279 92.5711 6.73606 92.8859 7.20611L92.0702 7.80058C91.536 7.0356 90.8158 6.65311 89.9095 6.65311C89.4325 6.65311 89.0318 6.77293 88.7074 7.01256C88.3926 7.25219 88.2352 7.57478 88.2352 7.98031C88.2352 8.24759 88.2972 8.46879 88.4212 8.64391C88.5357 8.80981 88.6836 8.94806 88.8648 9.05865C89.0461 9.16925 89.3418 9.32133 89.752 9.51488L90.7967 9.99875C91.5694 10.3674 92.1275 10.7407 92.4709 11.1186C92.8239 11.4965 93.0004 11.9711 93.0004 12.5425C93.0004 13.2891 92.7142 13.902 92.1418 14.3813C91.5694 14.8513 90.8396 15.0863 89.9524 15.0863C89.2273 15.0863 88.5596 14.9158 87.949 14.5748C87.3384 14.2246 86.8471 13.7407 86.4751 13.1232Z" fill="#585858"/>
</svg>
